<svg width="34" height="34" viewBox="0 0 34 34" fill="none" xmlns="http://www.w3.org/2000/svg">
<path d="M29.4181 0H4.58157C2.05129 0 0 2.0512 0 4.58157V29.4183C0 31.9486 2.05121 33.9998 4.58157 33.9998H16.8308L16.8517 21.8501H13.6952C13.285 21.8501 12.9521 21.5184 12.9505 21.1082L12.9354 17.1919C12.9338 16.7794 13.2677 16.4442 13.6802 16.4442H16.8309V12.66C16.8309 8.26853 19.513 5.87731 23.4305 5.87731H26.6451C27.0564 5.87731 27.3899 6.21075 27.3899 6.62213V9.92441C27.3899 10.3356 27.0567 10.669 26.6455 10.6692L24.6728 10.6701C22.5423 10.6701 22.1298 11.6825 22.1298 13.1682V16.4443H26.8111C27.2572 16.4443 27.6033 16.8338 27.5507 17.2768L27.0865 21.1931C27.0421 21.5679 26.7243 21.8503 26.347 21.8503H22.1506L22.1298 34H29.4183C31.9486 34 33.9998 31.9488 33.9998 29.4185V4.58157C33.9997 2.0512 31.9485 0 29.4181 0Z" fill="#475993"/>
</svg>
