<svg width="34" height="34" viewBox="0 0 34 34" fill="none" xmlns="http://www.w3.org/2000/svg">
<path d="M31.3158 0H2.68421C1.20176 0 0 1.20176 0 2.68421V31.3158C0 32.7982 1.20176 34 2.68421 34H31.3158C32.7982 34 34 32.7982 34 31.3158V2.68421C34 1.20176 32.7982 0 31.3158 0Z" fill="#03A9F4"/>
<path d="M28.0124 10.1709C27.184 10.5327 26.3079 10.773 25.4109 10.8845C26.3564 10.3238 27.0632 9.4355 27.3972 8.38817C26.5122 8.91346 25.5439 9.28341 24.5341 9.48199C23.9153 8.82022 23.1117 8.35997 22.2277 8.16111C21.3438 7.96224 20.4205 8.03397 19.5779 8.36695C18.7353 8.69994 18.0125 9.27877 17.5033 10.0282C16.9941 10.7776 16.7222 11.6628 16.723 12.5688C16.7198 12.9146 16.7551 13.2597 16.8281 13.5978C15.0319 13.5095 13.2745 13.0434 11.6707 12.2297C10.0668 11.416 8.65271 10.2732 7.52064 8.8758C6.93875 9.86987 6.75847 11.0486 7.01666 12.1712C7.27485 13.2937 7.952 14.2753 8.90972 14.9153C8.19488 14.896 7.49518 14.705 6.86972 14.3583V14.4075C6.87173 15.4495 7.2324 16.459 7.89109 17.2664C8.54978 18.0738 9.46634 18.6298 10.4867 18.8409C10.1006 18.9424 9.70264 18.992 9.30341 18.9886C9.01594 18.9939 8.72873 18.9684 8.4467 18.9125C8.73902 19.8086 9.30182 20.5922 10.0577 21.1554C10.8135 21.7186 11.7253 22.0337 12.6676 22.0575C11.0708 23.3056 9.10226 23.9836 7.07551 23.9834C6.71439 23.9865 6.35346 23.9656 5.99512 23.9208C8.06167 25.2532 10.4705 25.9572 12.9293 25.9474C21.2392 25.9474 25.7822 19.0646 25.7822 13.099C25.7822 12.8999 25.7822 12.7075 25.7666 12.5151C26.6513 11.8766 27.4123 11.0822 28.0124 10.1709Z" fill="white"/>
</svg>
