<svg width="34" height="34" viewBox="0 0 34 34" fill="none" xmlns="http://www.w3.org/2000/svg">
<path d="M29.3636 0H4.63636C2.07577 0 0 2.07577 0 4.63636V29.3636C0 31.9242 2.07577 34 4.63636 34H29.3636C31.9242 34 34 31.9242 34 29.3636V4.63636C34 2.07577 31.9242 0 29.3636 0Z" fill="#29A71A"/>
<path d="M24.495 9.50454C22.7263 7.71818 20.3775 6.62267 17.8722 6.4156C15.3669 6.20853 12.8701 6.90355 10.8321 8.37528C8.7941 9.847 7.3491 11.9986 6.75776 14.4419C6.16641 16.8852 6.46763 19.4594 7.60709 21.7001L6.48857 27.1305C6.47696 27.1845 6.47663 27.2404 6.4876 27.2946C6.49857 27.3487 6.5206 27.4001 6.55232 27.4453C6.59878 27.5141 6.6651 27.567 6.74242 27.597C6.81974 27.627 6.90438 27.6328 6.98505 27.6134L12.3072 26.3519C14.5417 27.4626 17.0977 27.7444 19.5205 27.1473C21.9432 26.5503 24.0756 25.113 25.5381 23.0913C27.0007 21.0696 27.6985 18.5946 27.5075 16.1067C27.3165 13.6188 26.2491 11.2793 24.495 9.50454ZM22.8356 22.7491C21.6118 23.9694 20.036 24.775 18.3302 25.0522C16.6243 25.3295 14.8745 25.0645 13.3272 24.2945L12.5854 23.9275L9.32255 24.7002L9.3322 24.6597L10.0083 21.3756L9.64516 20.6589C8.85458 19.1062 8.57569 17.3432 8.84845 15.6223C9.12121 13.9014 9.93161 12.3111 11.1636 11.079C12.7115 9.53147 14.8108 8.66214 16.9996 8.66214C19.1884 8.66214 21.2876 9.53147 22.8356 11.079C22.8488 11.0941 22.863 11.1083 22.8781 11.1215C24.4069 12.673 25.2603 14.7659 25.2524 16.944C25.2444 19.1222 24.3757 21.2088 22.8356 22.7491Z" fill="white"/>
<path d="M22.5457 20.34C22.1458 20.9698 21.5141 21.7406 20.7201 21.9319C19.3292 22.268 17.1945 21.9435 14.5383 19.4669L14.5054 19.4379C12.1699 17.2723 11.5633 15.4699 11.7101 14.0404C11.7912 13.229 12.4674 12.4949 13.0372 12.0158C13.1273 11.9389 13.2342 11.8842 13.3492 11.856C13.4643 11.8277 13.5843 11.8268 13.6998 11.8533C13.8152 11.8798 13.9229 11.9329 14.0141 12.0084C14.1054 12.0839 14.1777 12.1798 14.2253 12.2882L15.085 14.22C15.1408 14.3453 15.1615 14.4834 15.1449 14.6195C15.1282 14.7557 15.0748 14.8847 14.9903 14.9928L14.5557 15.5569C14.4624 15.6733 14.4061 15.8151 14.3941 15.9638C14.382 16.1125 14.4147 16.2614 14.488 16.3914C14.7314 16.8183 15.3149 17.4462 15.962 18.0277C16.6884 18.6845 17.4939 19.2853 18.0039 19.49C18.1404 19.5458 18.2905 19.5594 18.4347 19.5291C18.579 19.4988 18.7109 19.426 18.8134 19.32L19.3176 18.812C19.4149 18.716 19.5359 18.6476 19.6682 18.6137C19.8006 18.5797 19.9395 18.5815 20.071 18.6188L22.1129 19.1983C22.2256 19.2329 22.3288 19.2927 22.4148 19.3733C22.5007 19.4539 22.5671 19.5531 22.6089 19.6632C22.6506 19.7734 22.6666 19.8917 22.6557 20.009C22.6447 20.1263 22.6071 20.2395 22.5457 20.34Z" fill="white"/>
</svg>
