<svg width="20" height="21" viewBox="0 0 20 21" fill="none" xmlns="http://www.w3.org/2000/svg">
<path d="M17.4167 1.75195H2.58335C2.34024 1.75195 2.10708 1.84853 1.93517 2.02044C1.76326 2.19235 1.66669 2.4255 1.66669 2.66862V17.502C1.66669 17.6223 1.6904 17.7415 1.73646 17.8527C1.78253 17.964 1.85005 18.065 1.93517 18.1501C2.02029 18.2353 2.12135 18.3028 2.23256 18.3488C2.34378 18.3949 2.46298 18.4186 2.58335 18.4186H10.5667V11.9603H8.40002V9.46029H10.5667V7.58529C10.5218 7.14508 10.5738 6.70039 10.719 6.2824C10.8641 5.86441 11.099 5.48324 11.4071 5.16563C11.7152 4.84802 12.089 4.60165 12.5024 4.44382C12.9158 4.28598 13.3587 4.2205 13.8 4.25195C14.4486 4.24796 15.0969 4.28135 15.7417 4.35195V6.60195H14.4167C13.3667 6.60195 13.1667 7.10195 13.1667 7.82695V9.43529H15.6667L15.3417 11.9353H13.1667V18.4186H17.4167C17.5371 18.4186 17.6563 18.3949 17.7675 18.3488C17.8787 18.3028 17.9797 18.2353 18.0649 18.1501C18.15 18.065 18.2175 17.964 18.2636 17.8527C18.3096 17.7415 18.3334 17.6223 18.3334 17.502V2.66862C18.3334 2.54824 18.3096 2.42904 18.2636 2.31783C18.2175 2.20661 18.15 2.10556 18.0649 2.02044C17.9797 1.93532 17.8787 1.8678 17.7675 1.82173C17.6563 1.77566 17.5371 1.75195 17.4167 1.75195Z" fill="#404040"/>
</svg>
