<svg width="20" height="20" viewBox="0 0 20 20" fill="none" xmlns="http://www.w3.org/2000/svg">
<path d="M16.382 8.08434L10.5487 2.98017C10.2345 2.70526 9.76535 2.70526 9.45116 2.98017L3.61783 8.08434C3.43699 8.24258 3.33325 8.47119 3.33325 8.71149V15.8333C3.33325 16.2936 3.70635 16.6667 4.16659 16.6667H7.49992C7.96016 16.6667 8.33325 16.2936 8.33325 15.8333V12.5C8.33325 12.0398 8.70635 11.6667 9.16658 11.6667H10.8333C11.2935 11.6667 11.6666 12.0398 11.6666 12.5V15.8333C11.6666 16.2936 12.0397 16.6667 12.4999 16.6667H15.8333C16.2935 16.6667 16.6666 16.2936 16.6666 15.8333V8.71149C16.6666 8.47119 16.5629 8.24258 16.382 8.08434Z" stroke="#0B8457" stroke-width="2" stroke-linecap="round" stroke-linejoin="round"/>
</svg>
