<svg width="20" height="21" viewBox="0 0 20 21" fill="none" xmlns="http://www.w3.org/2000/svg">
<path d="M14.45 4.63529C14.2522 4.63529 14.0589 4.69394 13.8945 4.80382C13.73 4.9137 13.6018 5.06988 13.5261 5.2526C13.4505 5.43533 13.4306 5.6364 13.4692 5.83038C13.5078 6.02436 13.6031 6.20254 13.7429 6.34239C13.8828 6.48225 14.061 6.57749 14.2549 6.61607C14.4489 6.65466 14.65 6.63485 14.8327 6.55917C15.0154 6.48348 15.1716 6.35531 15.2815 6.19086C15.3914 6.02641 15.45 5.83307 15.45 5.63529C15.45 5.37007 15.3447 5.11572 15.1571 4.92818C14.9696 4.74064 14.7152 4.63529 14.45 4.63529ZM18.2834 6.65195C18.2671 5.96054 18.1377 5.27646 17.9 4.62695C17.6881 4.07123 17.3583 3.56802 16.9334 3.15195C16.5207 2.72481 16.0163 2.3971 15.4584 2.19362C14.8106 1.94875 14.1257 1.81629 13.4334 1.80195C12.55 1.75195 12.2667 1.75195 10 1.75195C7.73335 1.75195 7.45002 1.75195 6.56669 1.80195C5.87431 1.81629 5.18947 1.94875 4.54169 2.19362C3.98475 2.39916 3.4808 2.72659 3.06669 3.15195C2.63954 3.5646 2.31183 4.06899 2.10835 4.62695C1.86349 5.27474 1.73103 5.95958 1.71669 6.65195C1.66669 7.53529 1.66669 7.81862 1.66669 10.0853C1.66669 12.352 1.66669 12.6353 1.71669 13.5186C1.73103 14.211 1.86349 14.8958 2.10835 15.5436C2.31183 16.1016 2.63954 16.606 3.06669 17.0186C3.4808 17.444 3.98475 17.7714 4.54169 17.977C5.18947 18.2218 5.87431 18.3543 6.56669 18.3686C7.45002 18.4186 7.73335 18.4186 10 18.4186C12.2667 18.4186 12.55 18.4186 13.4334 18.3686C14.1257 18.3543 14.8106 18.2218 15.4584 17.977C16.0163 17.7735 16.5207 17.4458 16.9334 17.0186C17.3602 16.6041 17.6903 16.1004 17.9 15.5436C18.1377 14.8941 18.2671 14.21 18.2834 13.5186C18.2834 12.6353 18.3334 12.352 18.3334 10.0853C18.3334 7.81862 18.3334 7.53529 18.2834 6.65195ZM16.7834 13.4186C16.7773 13.9476 16.6815 14.4717 16.5 14.9686C16.367 15.3313 16.1533 15.659 15.875 15.927C15.6047 16.2024 15.2777 16.4156 14.9167 16.552C14.4198 16.7334 13.8957 16.8292 13.3667 16.8353C12.5334 16.877 12.225 16.8853 10.0334 16.8853C7.84169 16.8853 7.53335 16.8853 6.70002 16.8353C6.15076 16.8456 5.60385 16.761 5.08335 16.5853C4.73817 16.442 4.42615 16.2293 4.16669 15.9603C3.89009 15.6926 3.67906 15.3646 3.55002 15.002C3.34657 14.4979 3.23372 13.9619 3.21669 13.4186C3.21669 12.5853 3.16669 12.277 3.16669 10.0853C3.16669 7.89362 3.16669 7.58529 3.21669 6.75195C3.22042 6.21117 3.31915 5.67524 3.50835 5.16862C3.65506 4.81688 3.88024 4.50334 4.16669 4.25195C4.41986 3.96543 4.73276 3.73787 5.08335 3.58529C5.59131 3.40199 6.12669 3.30619 6.66669 3.30195C7.50002 3.30195 7.80835 3.25195 10 3.25195C12.1917 3.25195 12.5 3.25195 13.3334 3.30195C13.8623 3.30802 14.3864 3.40383 14.8834 3.58529C15.262 3.72583 15.6019 3.95433 15.875 4.25195C16.1481 4.50794 16.3615 4.8209 16.5 5.16862C16.6852 5.67606 16.7811 6.21177 16.7834 6.75195C16.825 7.58529 16.8334 7.89362 16.8334 10.0853C16.8334 12.277 16.825 12.5853 16.7834 13.4186ZM10 5.81029C9.15486 5.81193 8.32916 6.06406 7.62723 6.5348C6.92531 7.00555 6.37867 7.67378 6.05638 8.45508C5.7341 9.23638 5.65062 10.0957 5.81652 10.9244C5.98241 11.7531 6.39022 12.5141 6.98842 13.1111C7.58662 13.7081 8.34836 14.1145 9.1774 14.2787C10.0064 14.443 10.8656 14.3579 11.6462 14.0341C12.4269 13.7103 13.0941 13.1623 13.5635 12.4595C14.0328 11.7566 14.2834 10.9304 14.2834 10.0853C14.2845 9.52287 14.1744 8.96579 13.9594 8.44608C13.7444 7.92637 13.4288 7.45429 13.0307 7.057C12.6327 6.6597 12.16 6.34502 11.6399 6.13106C11.1197 5.9171 10.5624 5.80809 10 5.81029ZM10 12.8603C9.45118 12.8603 8.91466 12.6975 8.45831 12.3926C8.00197 12.0877 7.64629 11.6543 7.43625 11.1472C7.22622 10.6402 7.17127 10.0822 7.27834 9.54391C7.38542 9.00561 7.64971 8.51116 8.0378 8.12307C8.42589 7.73497 8.92035 7.47068 9.45865 7.36361C9.99694 7.25653 10.5549 7.31149 11.062 7.52152C11.569 7.73155 12.0024 8.08723 12.3073 8.54358C12.6123 8.99993 12.775 9.53644 12.775 10.0853C12.775 10.4497 12.7032 10.8106 12.5638 11.1472C12.4243 11.4839 12.2199 11.7898 11.9622 12.0475C11.7046 12.3052 11.3986 12.5096 11.062 12.6491C10.7253 12.7885 10.3644 12.8603 10 12.8603Z" fill="#404040"/>
</svg>
