<svg width="20" height="21" viewBox="0 0 20 21" fill="none" xmlns="http://www.w3.org/2000/svg">
<path d="M10 9.25228C10.9205 9.25228 11.6667 8.50609 11.6667 7.58561C11.6667 6.66514 10.9205 5.91895 10 5.91895C9.07957 5.91895 8.33337 6.66514 8.33337 7.58561C8.33337 8.50609 9.07957 9.25228 10 9.25228Z" fill="#404040"/>
<path d="M9.99996 17.5854C9.99996 17.5854 15.8333 13.547 15.8333 8.35468C15.8333 6.82458 15.2187 5.35716 14.1247 4.27522C13.0308 3.19328 11.5471 2.58545 9.99996 2.58545C8.45286 2.58545 6.96913 3.19328 5.87517 4.27522C4.78121 5.35716 4.16663 6.82458 4.16663 8.35468C4.16663 13.547 9.99996 17.5854 9.99996 17.5854Z" stroke="#404040" stroke-width="2" stroke-linecap="round" stroke-linejoin="round"/>
</svg>
