<svg width="20" height="21" viewBox="0 0 20 21" fill="none" xmlns="http://www.w3.org/2000/svg">
<path d="M7.91907 3.63313L6.9906 4.00452V4.00452L7.91907 3.63313ZM8.79763 5.82952L9.7261 5.45813L9.7261 5.45812L8.79763 5.82952ZM8.53053 7.51547L9.29876 8.15566H9.29876L8.53053 7.51547ZM8.05771 8.08287L8.82593 8.72305H8.82593L8.05771 8.08287ZM8.15957 10.3284L7.45246 11.0355L8.15957 10.3284ZM9.7571 11.9259L10.4642 11.2188V11.2188L9.7571 11.9259ZM12.0026 12.0277L11.3624 11.2595H11.3624L12.0026 12.0277ZM12.57 11.5549L13.2102 12.3231L13.2102 12.3231L12.57 11.5549ZM14.2559 11.2878L13.8845 12.2163L14.2559 11.2878ZM16.4523 12.1664L16.8237 11.2379L16.4523 12.1664ZM4.07895 3.58545H6.37161V1.58545H4.07895V3.58545ZM6.9906 4.00452L7.86915 6.20091L9.7261 5.45812L8.84755 3.26174L6.9906 4.00452ZM7.76231 6.87529L7.28949 7.44268L8.82593 8.72305L9.29876 8.15566L7.76231 6.87529ZM7.45246 11.0355L9.04999 12.633L10.4642 11.2188L8.86667 9.62124L7.45246 11.0355ZM12.6428 12.796L13.2102 12.3231L11.9298 10.7867L11.3624 11.2595L12.6428 12.796ZM13.8845 12.2163L16.0809 13.0949L16.8237 11.2379L14.6273 10.3593L13.8845 12.2163ZM16.5 13.7138V16.0065H18.5V13.7138H16.5ZM15.9211 16.5854C9.06109 16.5854 3.5 11.0244 3.5 4.1644H1.5C1.5 12.1289 7.95653 18.5854 15.9211 18.5854V16.5854ZM16.5 16.0065C16.5 16.3262 16.2408 16.5854 15.9211 16.5854V18.5854C17.3454 18.5854 18.5 17.4308 18.5 16.0065H16.5ZM16.0809 13.0949C16.334 13.1961 16.5 13.4412 16.5 13.7138H18.5C18.5 12.6234 17.8361 11.6429 16.8237 11.2379L16.0809 13.0949ZM13.2102 12.3231C13.3983 12.1664 13.6572 12.1254 13.8845 12.2163L14.6273 10.3593C13.7179 9.99558 12.6822 10.1596 11.9298 10.7867L13.2102 12.3231ZM9.04999 12.633C10.0252 13.6082 11.5832 13.6789 12.6428 12.796L11.3624 11.2595C11.0975 11.4803 10.708 11.4626 10.4642 11.2188L9.04999 12.633ZM7.28949 7.44268C6.40654 8.50222 6.47721 10.0602 7.45246 11.0355L8.86667 9.62124C8.62286 9.37743 8.60519 8.98793 8.82593 8.72305L7.28949 7.44268ZM7.86915 6.20091C7.96009 6.42826 7.91907 6.68718 7.76231 6.87529L9.29876 8.15566C9.9258 7.4032 10.0899 6.36755 9.7261 5.45813L7.86915 6.20091ZM6.37161 3.58545C6.64421 3.58545 6.88935 3.75142 6.9906 4.00452L8.84755 3.26174C8.44258 2.24932 7.46202 1.58545 6.37161 1.58545V3.58545ZM4.07895 1.58545C2.65463 1.58545 1.5 2.74008 1.5 4.1644H3.5C3.5 3.84465 3.7592 3.58545 4.07895 3.58545V1.58545Z" fill="#404040"/>
</svg>
