<svg width="20" height="21" viewBox="0 0 20 21" fill="none" xmlns="http://www.w3.org/2000/svg">
<path d="M17.9525 5.50061C18.3334 6.98561 18.3334 10.0856 18.3334 10.0856C18.3334 10.0856 18.3334 13.1856 17.9525 14.6706C17.7409 15.4914 17.1217 16.1373 16.3375 16.3556C14.9134 16.7523 10 16.7523 10 16.7523C10 16.7523 5.08919 16.7523 3.66252 16.3556C2.87502 16.1339 2.25669 15.4889 2.04752 14.6706C1.66669 13.1856 1.66669 10.0856 1.66669 10.0856C1.66669 10.0856 1.66669 6.98561 2.04752 5.50061C2.25919 4.67978 2.87835 4.03395 3.66252 3.81561C5.08919 3.41895 10 3.41895 10 3.41895C10 3.41895 14.9134 3.41895 16.3375 3.81561C17.125 4.03728 17.7434 4.68228 17.9525 5.50061ZM8.33335 13.0023L13.3334 10.0856L8.33335 7.16894V13.0023Z" fill="#404040"/>
</svg>
